<svg width="320" height="44" viewBox="0 0 320 44" fill="none" xmlns="http://www.w3.org/2000/svg">
<path d="M33.1562 30.5625C33.1562 33 32.5312 35.0312 31.2812 36.6562C30.0312 38.2812 28.375 39.6458 26.3125 40.75C24.5 41.75 22.0625 42.4896 19 42.9688C15.9583 43.4271 13.3021 43.6667 11.0312 43.6875C8.69792 43.6875 6.95833 43.6667 5.8125 43.625C4.6875 43.5833 3.67708 43.5208 2.78125 43.4375L0.90625 31.125C1.26042 31.1875 2.19792 31.2396 3.71875 31.2812C5.26042 31.3021 6.26042 31.3125 6.71875 31.3125C7.61458 31.3125 8.42708 31.2708 9.15625 31.1875C9.88542 31.0833 10.5833 30.9479 11.25 30.7812C12.0417 30.5729 12.5833 30.3229 12.875 30.0312C13.1875 29.7188 13.3438 29.3125 13.3438 28.8125C13.3438 28.375 13.125 27.9167 12.6875 27.4375C12.25 26.9375 11.7083 26.4688 11.0625 26.0312C10.2917 25.4271 9.53125 24.8958 8.78125 24.4375C8.05208 23.9792 7.3125 23.4167 6.5625 22.75C5.02083 21.375 3.86458 19.9896 3.09375 18.5938C2.32292 17.1979 1.9375 15.5 1.9375 13.5C1.9375 12.3958 2.10417 11.3438 2.4375 10.3438C2.79167 9.32292 3.33333 8.375 4.0625 7.5C5.77083 5.375 8.40625 3.70833 11.9688 2.5C15.5521 1.29167 19.7188 0.677083 24.4688 0.65625C26.7396 0.635417 28.2083 0.635417 28.875 0.65625C29.5625 0.65625 30.25 0.6875 30.9375 0.75L32.6562 13C31.8854 12.9792 31.2917 12.9688 30.875 12.9688C30.4792 12.9479 29.8854 12.9583 29.0938 13C28.0104 13.0417 27.125 13.1042 26.4375 13.1875C25.75 13.25 24.9375 13.3958 24 13.625C23.4375 13.75 22.9271 13.9583 22.4688 14.25C22.0104 14.5417 21.7812 14.8958 21.7812 15.3125C21.7812 15.8542 22 16.3438 22.4375 16.7812C22.875 17.2188 23.4167 17.6458 24.0625 18.0625C24.9167 18.6042 25.6875 19.1042 26.375 19.5625C27.0833 20 27.8854 20.5521 28.7812 21.2188C30.1562 22.2396 31.2292 23.5104 32 25.0312C32.7708 26.5521 33.1562 28.3958 33.1562 30.5625ZM64.1562 26.8125C64.1562 29.1875 63.8125 31.4583 63.125 33.625C62.4583 35.7917 61.2917 37.75 59.625 39.5C58.3125 40.875 56.7292 41.9167 54.875 42.625C53.0417 43.3125 51.1042 43.6562 49.0625 43.6562C47.0208 43.6562 45.0521 43.2917 43.1562 42.5625C41.2812 41.8333 39.7292 40.8229 38.5 39.5312C36.9167 37.8229 35.75 35.8958 35 33.75C34.25 31.6042 33.875 29.3021 33.875 26.8438C33.875 24.1562 34.2083 21.8542 34.875 19.9375C35.5625 18.0208 36.6458 16.1979 38.125 14.4688C39.4167 12.9479 41 11.8229 42.875 11.0938C44.75 10.3646 46.7812 10 48.9688 10C51.0729 10 53.0312 10.3542 54.8438 11.0625C56.6562 11.75 58.3021 12.8646 59.7812 14.4062C61.1979 15.9062 62.2812 17.6979 63.0312 19.7812C63.7812 21.8438 64.1562 24.1875 64.1562 26.8125ZM50.5 26.9688C50.5 25.9062 50.4583 24.8854 50.375 23.9062C50.3125 22.9271 50.1979 22.0625 50.0312 21.3125C49.9271 21.0417 49.8021 20.7917 49.6562 20.5625C49.5104 20.3333 49.2917 20.2188 49 20.2188C48.7083 20.2188 48.4896 20.3125 48.3438 20.5C48.1979 20.6875 48.0625 20.9583 47.9375 21.3125C47.7917 21.7708 47.6771 22.5208 47.5938 23.5625C47.5312 24.6042 47.5 25.7292 47.5 26.9375C47.5 28.0208 47.5312 29.0104 47.5938 29.9062C47.6562 30.8021 47.7812 31.5417 47.9688 32.125C48.0729 32.5 48.1875 32.8542 48.3125 33.1875C48.4583 33.5208 48.6875 33.6875 49 33.6875C49.2917 33.6875 49.5104 33.5208 49.6562 33.1875C49.8229 32.8542 49.9583 32.5 50.0625 32.125C50.2083 31.6042 50.3125 30.9167 50.375 30.0625C50.4583 29.1875 50.5 28.1562 50.5 26.9688ZM112.062 43H98.2812C98.2812 42 98.2812 40.75 98.2812 39.25C98.3021 37.75 98.3125 35.6042 98.3125 32.8125C98.3125 31.1042 98.3021 29.3333 98.2812 27.5C98.2812 25.6667 98.2812 24.2708 98.2812 23.3125C98.2812 21.7917 98.2188 20.8021 98.0938 20.3438C97.9896 19.8854 97.7292 19.6562 97.3125 19.6562C97.0625 19.6562 96.7917 19.7083 96.5 19.8125C96.2292 19.9167 96 20.0625 95.8125 20.25C95.8125 20.3542 95.8125 20.5417 95.8125 20.8125C95.8125 21.0625 95.8125 21.3542 95.8125 21.6875C95.8125 23.0208 95.8125 24.6042 95.8125 26.4375C95.8125 28.25 95.8125 29.6354 95.8125 30.5938C95.8125 32.6146 95.8125 34.9688 95.8125 37.6562C95.8125 40.3438 95.8125 42.125 95.8125 43H82.0625C82.0625 42.1875 82.0625 40.9896 82.0625 39.4062C82.0833 37.8229 82.0938 35.625 82.0938 32.8125C82.0938 31.1042 82.0833 29.3333 82.0625 27.5C82.0625 25.6667 82.0625 24.2708 82.0625 23.3125C82.0625 22.5625 82.0521 21.9479 82.0312 21.4688C82.0312 20.9688 82 20.5938 81.9375 20.3438C81.875 20.0938 81.7812 19.9167 81.6562 19.8125C81.5312 19.7083 81.3542 19.6562 81.125 19.6562C80.8542 19.6562 80.5729 19.7188 80.2812 19.8438C79.9896 19.9688 79.7604 20.125 79.5938 20.3125C79.5938 20.75 79.5938 22.2604 79.5938 24.8438C79.5938 27.4062 79.5938 29.3333 79.5938 30.625C79.5938 32.7292 79.5938 35.0938 79.5938 37.7188C79.5938 40.3438 79.5938 42.1042 79.5938 43H65.8438C65.8438 40.5625 65.8438 38.1042 65.8438 35.625C65.8646 33.125 65.875 29.9062 65.875 25.9688C65.875 21.2812 65.8646 18.1042 65.8438 16.4375C65.8438 14.7708 65.8438 12.8958 65.8438 10.8125H79.5938V12.6562L79.6875 12.6875C80.6458 12.0208 81.9167 11.4062 83.5 10.8438C85.0833 10.2812 86.7396 10 88.4688 10C89.6354 10 90.7708 10.2917 91.875 10.875C92.9792 11.4375 93.8542 12.1771 94.5 13.0938H94.625C95.3958 12.4688 96.6354 11.8021 98.3438 11.0938C100.052 10.3646 102.062 10 104.375 10C106.708 10 108.562 10.8438 109.938 12.5312C111.333 14.1979 112.031 16.2708 112.031 18.75C112.031 21.3542 112.031 23.5833 112.031 25.4375C112.031 27.2917 112.031 28.625 112.031 29.4375C112.031 30.9167 112.031 33.0312 112.031 35.7812C112.052 38.5312 112.062 40.9375 112.062 43ZM141.469 28.0625H127.844C127.823 29.2083 128.031 30.1354 128.469 30.8438C128.906 31.5312 129.604 32.1042 130.562 32.5625C131.5 33.0417 132.479 33.375 133.5 33.5625C134.542 33.75 135.479 33.8438 136.312 33.8438C137.438 33.8438 138.24 33.8333 138.719 33.8125C139.219 33.7917 139.802 33.7708 140.469 33.75L139.125 43.2812C138.312 43.3229 137.604 43.3646 137 43.4062C136.417 43.4479 135.562 43.4688 134.438 43.4688C131.208 43.4479 128.271 43.0833 125.625 42.375C123 41.6458 120.677 40.3958 118.656 38.625C116.885 36.9583 115.604 35.0833 114.812 33C114.021 30.8958 113.625 28.7396 113.625 26.5312C113.625 24.1562 113.917 21.9792 114.5 20C115.104 18.0208 116.177 16.1875 117.719 14.5C119.073 12.9583 120.635 11.8229 122.406 11.0938C124.177 10.3646 126 10 127.875 10C129.958 10 131.844 10.3542 133.531 11.0625C135.24 11.75 136.667 12.7604 137.812 14.0938C139.271 15.8021 140.24 17.8021 140.719 20.0938C141.219 22.3854 141.469 25.0417 141.469 28.0625ZM129.188 23.2812C129.167 21.5521 129.052 20.2604 128.844 19.4062C128.656 18.5521 128.281 18.125 127.719 18.125C127.24 18.125 126.875 18.5 126.625 19.25C126.396 20 126.25 21.3438 126.188 23.2812H129.188ZM187.438 21.75C187.438 22.8958 187.438 24.5521 187.438 26.7188C187.438 28.8854 187.438 30.7292 187.438 32.25C187.438 34.4167 187.438 36.3542 187.438 38.0625C187.438 39.7708 187.438 41.4167 187.438 43C186.958 43.0833 185.844 43.1667 184.094 43.25C182.344 43.3333 180.812 43.375 179.5 43.375C176.562 43.375 173.562 43.0417 170.5 42.375C167.438 41.6875 164.542 40.2396 161.812 38.0312C159.688 36.2604 158.031 33.9688 156.844 31.1562C155.677 28.3438 155.094 25.3333 155.094 22.125C155.094 19.125 155.573 16.3542 156.531 13.8125C157.51 11.25 158.948 9.09375 160.844 7.34375C163.24 5.05208 165.99 3.38542 169.094 2.34375C172.219 1.28125 176.094 0.75 180.719 0.75C181.073 0.75 181.385 0.75 181.656 0.75C181.927 0.75 182.26 0.75 182.656 0.75L184.531 13.5312C184.052 13.5312 183.667 13.5312 183.375 13.5312C183.083 13.5312 182.719 13.5312 182.281 13.5312C181.531 13.5312 180.427 13.6979 178.969 14.0312C177.51 14.3438 176.281 14.8333 175.281 15.5C173.781 16.4792 172.656 17.625 171.906 18.9375C171.177 20.25 170.812 21.7812 170.812 23.5312C170.812 24.9896 170.917 26.2604 171.125 27.3438C171.354 28.4271 171.646 29.5833 172 30.8125C172.188 31.4167 172.458 31.8854 172.812 32.2188C173.167 32.5312 173.594 32.6979 174.094 32.7188C174.094 32.0521 174.094 30.3958 174.094 27.75C174.094 25.1042 174.094 23.1042 174.094 21.75H187.438ZM215.875 27.5C215.875 30.6875 215.875 33.7708 215.875 36.75C215.896 39.7292 215.906 41.8021 215.906 42.9688C215.156 43.0729 213.604 43.1875 211.25 43.3125C208.896 43.4375 207.062 43.5 205.75 43.5C204.125 43.5 202.094 43.3542 199.656 43.0625C197.219 42.7708 195.188 42.2292 193.562 41.4375C191.771 40.5833 190.438 39.4688 189.562 38.0938C188.688 36.6979 188.25 35.1875 188.25 33.5625C188.25 31.6667 188.646 30.0729 189.438 28.7812C190.229 27.4896 191.688 26.3646 193.812 25.4062C195.25 24.7604 196.719 24.3021 198.219 24.0312C199.719 23.7396 200.854 23.5208 201.625 23.375C201.625 22.7083 201.531 22.1771 201.344 21.7812C201.156 21.3854 200.771 21.0208 200.188 20.6875C199.75 20.4167 199.083 20.2292 198.188 20.125C197.312 20.0208 196.312 19.9688 195.188 19.9688C194.083 19.9688 193.24 19.9792 192.656 20C192.073 20 191.448 20 190.781 20L191.938 10.375C192.417 10.375 192.844 10.375 193.219 10.375C193.615 10.375 194.312 10.375 195.312 10.375C199.771 10.375 203.24 10.7812 205.719 11.5938C208.219 12.3854 210.323 13.6667 212.031 15.4375C213.573 17 214.594 18.75 215.094 20.6875C215.615 22.6042 215.875 24.875 215.875 27.5ZM202.625 31.9688C202.625 31.0104 202.625 30.25 202.625 29.6875C202.625 29.125 202.625 28.5729 202.625 28.0312C202.354 28.0521 202.062 28.125 201.75 28.25C201.458 28.375 201.198 28.6042 200.969 28.9375C200.823 29.2292 200.688 29.6458 200.562 30.1875C200.438 30.7292 200.375 31.3021 200.375 31.9062C200.375 32.5521 200.427 33.1146 200.531 33.5938C200.656 34.0729 200.802 34.5208 200.969 34.9375C201.094 35.1667 201.25 35.3646 201.438 35.5312C201.625 35.6979 201.875 35.7812 202.188 35.7812C202.271 35.7812 202.354 35.7812 202.438 35.7812C202.521 35.7812 202.583 35.7812 202.625 35.7812C202.625 35.2604 202.625 34.6667 202.625 34C202.625 33.3125 202.625 32.6354 202.625 31.9688ZM264.25 43H250.469C250.469 42 250.469 40.75 250.469 39.25C250.49 37.75 250.5 35.6042 250.5 32.8125C250.5 31.1042 250.49 29.3333 250.469 27.5C250.469 25.6667 250.469 24.2708 250.469 23.3125C250.469 21.7917 250.406 20.8021 250.281 20.3438C250.177 19.8854 249.917 19.6562 249.5 19.6562C249.25 19.6562 248.979 19.7083 248.688 19.8125C248.417 19.9167 248.188 20.0625 248 20.25C248 20.3542 248 20.5417 248 20.8125C248 21.0625 248 21.3542 248 21.6875C248 23.0208 248 24.6042 248 26.4375C248 28.25 248 29.6354 248 30.5938C248 32.6146 248 34.9688 248 37.6562C248 40.3438 248 42.125 248 43H234.25C234.25 42.1875 234.25 40.9896 234.25 39.4062C234.271 37.8229 234.281 35.625 234.281 32.8125C234.281 31.1042 234.271 29.3333 234.25 27.5C234.25 25.6667 234.25 24.2708 234.25 23.3125C234.25 22.5625 234.24 21.9479 234.219 21.4688C234.219 20.9688 234.188 20.5938 234.125 20.3438C234.062 20.0938 233.969 19.9167 233.844 19.8125C233.719 19.7083 233.542 19.6562 233.312 19.6562C233.042 19.6562 232.76 19.7188 232.469 19.8438C232.177 19.9688 231.948 20.125 231.781 20.3125C231.781 20.75 231.781 22.2604 231.781 24.8438C231.781 27.4062 231.781 29.3333 231.781 30.625C231.781 32.7292 231.781 35.0938 231.781 37.7188C231.781 40.3438 231.781 42.1042 231.781 43H218.031C218.031 40.5625 218.031 38.1042 218.031 35.625C218.052 33.125 218.062 29.9062 218.062 25.9688C218.062 21.2812 218.052 18.1042 218.031 16.4375C218.031 14.7708 218.031 12.8958 218.031 10.8125H231.781V12.6562L231.875 12.6875C232.833 12.0208 234.104 11.4062 235.688 10.8438C237.271 10.2812 238.927 10 240.656 10C241.823 10 242.958 10.2917 244.062 10.875C245.167 11.4375 246.042 12.1771 246.688 13.0938H246.812C247.583 12.4688 248.823 11.8021 250.531 11.0938C252.24 10.3646 254.25 10 256.562 10C258.896 10 260.75 10.8438 262.125 12.5312C263.521 14.1979 264.219 16.2708 264.219 18.75C264.219 21.3542 264.219 23.5833 264.219 25.4375C264.219 27.2917 264.219 28.625 264.219 29.4375C264.219 30.9167 264.219 33.0312 264.219 35.7812C264.24 38.5312 264.25 40.9375 264.25 43ZM293.656 28.0625H280.031C280.01 29.2083 280.219 30.1354 280.656 30.8438C281.094 31.5312 281.792 32.1042 282.75 32.5625C283.688 33.0417 284.667 33.375 285.688 33.5625C286.729 33.75 287.667 33.8438 288.5 33.8438C289.625 33.8438 290.427 33.8333 290.906 33.8125C291.406 33.7917 291.99 33.7708 292.656 33.75L291.312 43.2812C290.5 43.3229 289.792 43.3646 289.188 43.4062C288.604 43.4479 287.75 43.4688 286.625 43.4688C283.396 43.4479 280.458 43.0833 277.812 42.375C275.188 41.6458 272.865 40.3958 270.844 38.625C269.073 36.9583 267.792 35.0833 267 33C266.208 30.8958 265.812 28.7396 265.812 26.5312C265.812 24.1562 266.104 21.9792 266.688 20C267.292 18.0208 268.365 16.1875 269.906 14.5C271.26 12.9583 272.823 11.8229 274.594 11.0938C276.365 10.3646 278.188 10 280.062 10C282.146 10 284.031 10.3542 285.719 11.0625C287.427 11.75 288.854 12.7604 290 14.0938C291.458 15.8021 292.427 17.8021 292.906 20.0938C293.406 22.3854 293.656 25.0417 293.656 28.0625ZM281.375 23.2812C281.354 21.5521 281.24 20.2604 281.031 19.4062C280.844 18.5521 280.469 18.125 279.906 18.125C279.427 18.125 279.062 18.5 278.812 19.25C278.583 20 278.438 21.3438 278.375 23.2812H281.375ZM319.469 32.9375C319.469 34.7708 318.99 36.3646 318.031 37.7188C317.073 39.0521 315.76 40.1667 314.094 41.0625C312.656 41.8333 310.708 42.4271 308.25 42.8438C305.812 43.2396 303.49 43.4688 301.281 43.5312C299.969 43.5938 298.854 43.625 297.938 43.625C297.042 43.625 296.219 43.6354 295.469 43.6562L294.062 34.0625C294.604 34.0625 295.115 34.0625 295.594 34.0625C296.094 34.0417 296.729 34.0208 297.5 34C298.229 33.9792 298.854 33.9375 299.375 33.875C299.896 33.7917 300.417 33.6875 300.938 33.5625C301.542 33.4375 301.979 33.2708 302.25 33.0625C302.521 32.8542 302.656 32.5938 302.656 32.2812C302.656 31.9062 302.51 31.5625 302.219 31.25C301.927 30.9375 301.438 30.4583 300.75 29.8125C300.458 29.5208 300.104 29.1979 299.688 28.8438C299.271 28.4896 298.854 28.1042 298.438 27.6875C297.438 26.625 296.688 25.5521 296.188 24.4688C295.688 23.3646 295.438 22.1562 295.438 20.8438C295.438 19.2604 295.823 17.8438 296.594 16.5938C297.385 15.3229 298.792 14.1562 300.812 13.0938C302.354 12.2604 304.354 11.625 306.812 11.1875C309.271 10.75 311.583 10.4688 313.75 10.3438C314.896 10.3021 315.802 10.2708 316.469 10.25C317.135 10.2292 317.698 10.2188 318.156 10.2188L319.469 19.9375C319.219 19.9375 319 19.9375 318.812 19.9375C318.646 19.9375 318.375 19.9375 318 19.9375C317.188 19.9375 316.458 19.9688 315.812 20.0312C315.188 20.0729 314.51 20.1562 313.781 20.2812C313.365 20.3854 312.99 20.5312 312.656 20.7188C312.323 20.8854 312.156 21.1667 312.156 21.5625C312.156 21.9167 312.312 22.2917 312.625 22.6875C312.938 23.0833 313.344 23.5 313.844 23.9375C314.24 24.2917 314.646 24.6458 315.062 25C315.5 25.3333 315.896 25.6667 316.25 26C317.292 26.9583 318.083 27.9896 318.625 29.0938C319.188 30.1979 319.469 31.4792 319.469 32.9375Z" fill="url(#paint0_linear_5_4)"/>
<defs>
<linearGradient id="paint0_linear_5_4" x1="160" y1="19" x2="160" y2="43" gradientUnits="userSpaceOnUse">
<stop stop-color="#044E93"/>
<stop offset="1" stop-color="#3497F3"/>
</linearGradient>
</defs>
</svg>
